{
	"asset":{
		"generator":"Khronos glTF Blender I/O v4.4.56",
		"version":"2.0"
	},
	"scene":0,
	"scenes":[
		{
			"name":"Scene",
			"nodes":[
				0
			]
		}
	],
	"nodes":[
		{
			"mesh":0,
			"name":"GE Room_Original",
			"scale":[
				0.0010000000474974513,
				0.0010000000474974513,
				0.0010000000474974513
			],
			"translation":[
				6.900000095367432,
				10.800000190734863,
				3.75
			]
		}
	],
	"meshes":[
		{
			"name":"GE Room_Original.010",
			"primitives":[
				{
					"attributes":{
						"POSITION":0,
						"NORMAL":1
					},
					"indices":2
				}
			]
		}
	],
	"accessors":[
		{
			"bufferView":0,
			"componentType":5126,
			"count":381607,
			"max":[
				102.88680267333984,
				102.88687896728516,
				104.52267456054688
			],
			"min":[
				-13699.88671875,
				-21454.88671875,
				-7402.88671875
			],
			"type":"VEC3"
		},
		{
			"bufferView":1,
			"componentType":5126,
			"count":381607,
			"type":"VEC3"
		},
		{
			"bufferView":2,
			"componentType":5125,
			"count":572652,
			"type":"SCALAR"
		}
	],
	"bufferViews":[
		{
			"buffer":0,
			"byteLength":4579284,
			"byteOffset":0,
			"target":34962
		},
		{
			"buffer":0,
			"byteLength":4579284,
			"byteOffset":4579284,
			"target":34962
		},
		{
			"buffer":0,
			"byteLength":2290608,
			"byteOffset":9158568,
			"target":34963
		}
	],
	"buffers":[
		{
			"byteLength":11449176,
			"uri":"model_GE.bin"
		}
	]
}
